<?xml version="1.0" encoding="UTF-8" standalone="no"?>
<!DOCTYPE svg PUBLIC "-//W3C//DTD SVG 1.1//EN" "http://www.w3.org/Graphics/SVG/1.1/DTD/svg11.dtd">
<svg width="100%" height="100%" viewBox="0 0 150 150" version="1.1" xmlns="http://www.w3.org/2000/svg" xmlns:xlink="http://www.w3.org/1999/xlink" xml:space="preserve" xmlns:serif="http://www.serif.com/" style="fill-rule:evenodd;clip-rule:evenodd;stroke-linejoin:round;stroke-miterlimit:2;">
    <g transform="matrix(4.82005,0,0,4.82005,-45.5013,-45.919)">
        <path d="M36.71,9.57L21.15,9.57C19.038,9.57 17.3,11.308 17.3,13.42L17.3,17.17L13.3,17.17C11.192,17.164 9.451,18.892 9.44,21L9.44,36.58C9.445,38.69 11.18,40.425 13.29,40.43L28.85,40.43C30.962,40.43 32.7,38.692 32.7,36.58L32.7,32.83L36.7,32.83C38.808,32.836 40.549,31.108 40.56,29L40.56,13.42C40.555,11.31 38.82,9.575 36.71,9.57ZM29.62,36.57C29.62,36.992 29.272,37.34 28.85,37.34L13.29,37.34C12.87,37.335 12.525,36.99 12.52,36.57L12.52,21C12.52,20.578 12.868,20.23 13.29,20.23L28.85,20.23C28.853,20.23 28.857,20.23 28.86,20.23C29.277,20.23 29.62,20.573 29.62,20.99C29.62,20.993 29.62,20.997 29.62,21L29.62,36.58L29.62,36.57ZM37.48,29C37.48,29.422 37.132,29.77 36.71,29.77L32.71,29.77L32.71,21C32.71,18.888 30.972,17.15 28.86,17.15L20.38,17.15L20.38,13.42C20.38,12.998 20.728,12.65 21.15,12.65L36.71,12.65C37.13,12.655 37.475,13 37.48,13.42L37.48,29Z" style="fill:rgb(79,79,79);fill-rule:nonzero;"/>
    </g>
</svg>
