<?xml version="1.0" encoding="UTF-8" standalone="no"?>
<!DOCTYPE svg PUBLIC "-//W3C//DTD SVG 1.1//EN" "http://www.w3.org/Graphics/SVG/1.1/DTD/svg11.dtd">
<svg width="100%" height="100%" viewBox="0 0 128 128" version="1.1" xmlns="http://www.w3.org/2000/svg" xmlns:xlink="http://www.w3.org/1999/xlink" xml:space="preserve" xmlns:serif="http://www.serif.com/" style="fill-rule:evenodd;clip-rule:evenodd;stroke-linejoin:round;stroke-miterlimit:2;">
    <g transform="matrix(1,0,0,1,-360.905,0)">
        <g id="Path" transform="matrix(1,0,0,1,360.905,0)">
            <rect x="0" y="0" width="128" height="128" style="fill:none;"/>
            <g transform="matrix(4.34939,-10.4134,5.38822,2.2505,-297.507,438.275)">
                <path d="M40.931,36.195C41.939,35.367 41.975,34.119 42.263,33.363C42.443,32.895 42.671,32.631 43.103,32.595C43.559,32.559 43.823,32.931 43.823,33.327C43.823,33.723 43.619,33.939 43.403,33.951C43.187,33.963 43.055,33.771 43.091,33.627C42.659,33.795 42.695,34.671 42.491,35.223C42.227,35.919 41.771,36.507 41.051,36.651C41.879,36.879 43.367,36.807 44.147,36.195C45.035,35.499 45.659,34.503 45.239,32.103C45.083,31.239 45.275,31.107 45.455,31.059C45.575,31.023 45.755,31.107 45.743,31.347C46.175,31.119 45.995,30.303 46.235,29.463C46.487,28.599 47.147,27.891 47.987,27.819C47.003,27.351 45.683,27.339 44.903,27.999C44.075,28.695 44.051,29.967 43.895,30.579C43.739,31.167 43.451,31.611 42.851,31.539C42.419,31.491 42.167,31.179 42.179,30.795C42.191,30.447 42.347,30.255 42.539,30.243C42.743,30.231 42.863,30.411 42.839,30.567C43.235,30.423 43.139,29.559 43.307,29.043C43.523,28.407 43.931,27.855 44.603,27.759C44.015,27.531 42.923,27.435 42.047,27.879C40.907,28.455 40.355,29.811 40.679,31.755C40.895,33.027 40.655,33.243 40.475,33.291C40.295,33.339 40.187,33.171 40.187,33.015C39.743,33.471 39.947,34.155 39.575,35.043C39.311,35.691 38.615,36.411 37.811,36.567C38.783,36.963 40.127,36.855 40.931,36.195Z" style="fill:rgb(185,255,55);fill-rule:nonzero;"/>
            </g>
            <g transform="matrix(3.69766,-0.74185,1.16093,5.78649,-105.667,-53.1991)">
                <path d="M42.419,32.715C42.779,32.715 43.079,32.667 43.307,32.523C43.727,32.259 43.859,31.719 43.799,31.311C43.559,31.671 43.043,31.647 42.455,31.575C42.443,30.915 42.551,30.435 43.019,30.147C42.287,29.883 41.627,30.171 41.387,30.807C41.315,30.987 41.279,31.191 41.255,31.407C41.003,31.383 40.739,31.383 40.547,31.431C39.947,31.587 39.563,32.127 39.779,32.859C40.103,32.451 40.559,32.451 41.231,32.583C41.219,33.231 41.147,33.843 40.703,34.071C41.123,34.155 41.711,34.047 42.059,33.651C42.251,33.423 42.359,33.099 42.419,32.715Z" style="fill:rgb(185,255,55);fill-rule:nonzero;"/>
            </g>
        </g>
    </g>
</svg>
