<?xml version="1.0" encoding="UTF-8" standalone="no"?>
<!DOCTYPE svg PUBLIC "-//W3C//DTD SVG 1.1//EN" "http://www.w3.org/Graphics/SVG/1.1/DTD/svg11.dtd">
<svg width="100%" height="100%" viewBox="0 0 128 128" version="1.1" xmlns="http://www.w3.org/2000/svg" xmlns:xlink="http://www.w3.org/1999/xlink" xml:space="preserve" xmlns:serif="http://www.serif.com/" style="fill-rule:evenodd;clip-rule:evenodd;stroke-linejoin:round;stroke-miterlimit:2;">
    <g transform="matrix(0.717087,0,0,0.717087,-17.9272,-16.6723)">
        <path d="M55,61L55,189.5C55,191.984 52.984,194 50.5,194L29.5,194C27.016,194 25,191.984 25,189.5L25,35.5C25,33.016 27.016,31 29.5,31L71.929,31C71.997,31 72.064,31.001 72.131,31.004C72.254,31.001 72.377,31 72.5,31C96.784,31 116.5,50.716 116.5,75C116.5,75.278 116.492,75.555 116.477,75.829C116.492,75.978 116.5,76.129 116.5,76.282L116.5,135.5L145,135.5L145,111.5C145,109.016 147.016,107 149.5,107L170.5,107C172.984,107 175,109.016 175,111.5L175,135.5L199,135.5C201.484,135.5 203.5,137.516 203.5,140L203.5,161C203.5,163.484 201.484,165.5 199,165.5L175,165.5L175,189.5C175,191.984 172.984,194 170.5,194L149.5,194C147.016,194 145,191.984 145,189.5L145,165.5L116.5,165.5L116.5,189.5C116.5,191.984 114.484,194 112,194L91,194C88.516,194 86.5,191.984 86.5,189.5L86.5,76.282C86.5,76.129 86.508,75.978 86.523,75.829C86.508,75.555 86.5,75.278 86.5,75C86.5,67.273 80.227,61 72.5,61C72.377,61 72.254,60.999 72.131,60.996C72.064,60.999 71.997,61 71.929,61L55,61Z" style="fill:rgb(170,170,170);"/>
    </g>
</svg>
